<svg width="98" height="90" viewBox="0 0 98 90" fill="none" xmlns="http://www.w3.org/2000/svg">
<path d="M86.8422 19.7626L87.1636 19.2081C90.7062 13.106 88.5847 5.23053 82.4509 1.70617C76.8343 -1.52096 69.7238 -0.0197964 65.8472 4.94078C60.5947 3.02749 54.9204 1.98342 49.0025 1.98342C43.0846 1.98342 37.3476 3.03998 32.0699 4.97326C28.1958 -0.0123029 21.0678 -1.52845 15.4387 1.70617C9.30488 5.23053 7.18329 13.106 10.726 19.2081L11.095 19.8425C4.16033 28.2525 0 39.0079 0 50.73C0 77.651 21.939 90 49 90C76.061 90 98 77.6535 98 50.73C98 38.9705 93.8121 28.1826 86.8422 19.7626Z" fill="#EFEFEF"/>
<g clip-path="url(#clip0_1439_24024)">
<path d="M33.2199 47.557L46.7519 47.557L46.7519 61.093H46.7518L46.752 61.1017C46.7622 61.6928 47.0042 62.2561 47.4258 62.6705C47.8475 63.0848 48.4149 63.317 49.0061 63.317C49.5972 63.317 50.1647 63.0848 50.5863 62.6705C51.0079 62.2561 51.2499 61.6928 51.2602 61.1017L51.2603 61.1017L51.2603 61.093V47.557L64.7963 47.557V47.5571L64.805 47.5569C65.396 47.5466 65.9594 47.3046 66.3738 46.883C66.7881 46.4614 67.0203 45.8939 67.0203 45.3028C67.0203 44.7117 66.7881 44.1442 66.3738 43.7226C65.9594 43.3009 65.396 43.0589 64.805 43.0487L64.805 43.0486L64.7963 43.0486L51.2603 43.0486L51.2603 29.5126L51.2603 29.5045L51.26 29.4965C51.2412 28.9113 50.9955 28.3563 50.5748 27.9491C50.1541 27.5418 49.5914 27.3142 49.0059 27.3144C48.4204 27.3146 47.8579 27.5426 47.4375 27.9502C47.0171 28.3577 46.7718 28.9129 46.7534 29.4981L46.7531 29.5059L46.7531 29.5137L46.7519 43.0486L33.2199 43.0486C32.9222 43.044 32.6264 43.0985 32.3498 43.2089L32.5351 43.6733L32.3498 43.2089C32.0718 43.3198 31.8186 43.485 31.6051 43.6949C31.3916 43.9047 31.222 44.1549 31.1063 44.431C30.9905 44.7071 30.9309 45.0034 30.9309 45.3028C30.9309 45.6021 30.9905 45.8985 31.1063 46.1746C31.222 46.4506 31.3916 46.7009 31.6051 46.9107C31.8186 47.1206 32.0718 47.2858 32.3498 47.3967C32.6264 47.5071 32.9222 47.5615 33.2199 47.557Z" fill="white" stroke="white"/>
</g>
<defs>
<clipPath id="clip0_1439_24024">
<rect width="34.3675" height="34.3675" fill="white" transform="translate(49 21) rotate(45)"/>
</clipPath>
</defs>
</svg>
