<svg width="53" height="50" viewBox="0 0 53 50" fill="none" xmlns="http://www.w3.org/2000/svg">
<g clip-path="url(#clip0_1690_28931)">
<path d="M8.79947 1.54445C12.0499 -0.332168 16.2116 0.782966 18.0882 4.03336L18.6338 4.97828C19.3484 6.21598 18.9238 7.80063 17.6861 8.51521L10.393 12.7258C9.15535 13.4404 7.5707 13.0158 6.85611 11.7781L6.31056 10.8332C4.43395 7.5828 5.54908 3.42107 8.79947 1.54445Z" fill="#FFE8D9"/>
<path d="M42.5892 12.7268L35.2962 8.51617C34.0585 7.80158 33.6339 6.21693 34.3485 4.97923L34.894 4.03431C36.7707 0.783916 40.9324 -0.331219 44.1828 1.5454C47.4332 3.42201 48.5483 7.58375 46.6717 10.8341L46.1261 11.7791C45.4116 13.0168 43.8269 13.4414 42.5892 12.7268Z" fill="#FFE8D9"/>
<path d="M52.3943 27.5653C52.3943 41.8544 40.8098 48.4089 26.5207 48.4089C12.2316 48.4089 0.648438 41.8544 0.648438 27.5653C0.648438 13.2762 12.2316 1.69171 26.522 1.69171C40.8124 1.69171 52.3956 13.2762 52.3956 27.5653H52.3943Z" fill="#F29A55"/>
<path d="M51.2171 32.0543C51.2171 41.0682 40.0966 48.3758 26.3803 48.3758C12.664 48.3758 1.54346 41.0682 1.54346 32.0543C1.54346 23.0405 13.7922 30.5602 27.5098 30.5602C41.2275 30.5602 51.2171 23.0405 51.2171 32.0543Z" fill="#B06837"/>
<path d="M38.573 4.71312L38.561 4.46785L38.7307 4.36577L38.8951 4.26766L39.0754 4.19872L39.1576 3.99853L39.318 3.8991L39.5474 3.94417L39.7145 3.87921L39.8351 3.67637L40.0379 3.70686L40.1917 3.54114L40.3787 3.51065L40.5815 3.66842L40.7578 3.47353L40.9501 3.42978L41.1304 3.58092L41.3014 3.69493L41.5148 3.53982L41.6872 3.6366L41.8489 3.74929L42.0133 3.83811L42.244 3.75459L42.3474 3.9813L42.6033 3.88849L42.6789 4.13774L42.8777 4.16955L42.9984 4.32069L43.1124 4.47448L43.3059 4.53016L43.408 4.6919L43.5406 4.81785L43.6506 4.96501L43.9198 4.98755L43.8734 5.25535L44.1173 5.31634L44.1902 5.49399L44.2393 5.68225L44.3308 5.84532L44.4448 6.00441L44.3308 6.23907L44.4355 6.39816L44.641 6.54665L44.5296 6.75612L44.6595 6.93244L44.6423 7.12468L44.7006 7.31824L44.5813 7.49987L44.4686 7.66957L44.5044 7.86711L44.4368 8.04343L44.3029 8.18794L44.3652 8.42658L44.2631 8.59097L44.0457 8.67184" fill="#B06837"/>
<path d="M14.4747 4.68395L14.3236 4.57259L14.3368 4.30744L14.1167 4.26501L13.9431 4.18679L13.7707 4.1205L13.7323 3.82619L13.5082 3.84342L13.3438 3.75592L13.1357 3.79039L12.9633 3.73471L12.8122 3.56501L12.6133 3.63395L12.4264 3.66842L12.2474 3.66444L12.0618 3.50137L11.8881 3.68168L11.6879 3.55308L11.5103 3.62732L11.3499 3.75062L11.1086 3.58092L10.9376 3.67505L10.8169 3.88054L10.6393 3.93622L10.5054 4.07808L10.2349 3.97865L10.0878 4.1046L10.0467 4.3724L9.77355 4.31937L9.63434 4.45062L9.49646 4.5832L9.40101 4.75422L9.32544 4.93717L9.26445 5.12411L8.98737 5.15062L9.06426 5.42505L8.91047 5.5457L8.7726 5.68358L8.81502 5.90498L8.62544 6.02695L8.65195 6.23112L8.48756 6.37695L8.52998 6.57714L8.5154 6.7601L8.47165 6.9404L8.4796 7.12468L8.49551 7.30764L8.57638 7.47999L8.35498 7.70537L8.58699 7.84457L8.53528 8.05537L8.62146 8.22506L8.76597 8.36294L8.84551 8.52866L9.0046 8.64135" fill="#B06837"/>
<path d="M34.6394 15.2198L34.6102 15.4438H34.8794L34.9536 15.6321L35.0597 15.8455L35.3116 15.6997L35.4693 15.7978L35.6417 15.876L35.8299 15.8376L36.0076 15.9821L36.1932 15.7872L36.3735 15.8018L36.5631 15.8747L36.7394 15.8044L36.9277 15.8243L37.1278 15.8853L37.2777 15.6971L37.4606 15.6772L37.682 15.7846L37.8292 15.6255L38.0227 15.6162L38.1367 15.3895L38.3277 15.3789L38.5438 15.4186L38.6551 15.2145L38.8646 15.2251L39.0595 15.1959L39.1364 14.956L39.3777 14.9997L39.5407 14.9042L39.615 14.6908L39.8072 14.6364L39.9093 14.472L40.0763 14.3792L40.2288 14.2639L40.2911 14.0756L40.2885 13.8635L40.4555 13.7495L40.4926 13.5745L40.5655 13.3955L40.5921 13.1874L40.4197 13.0535L40.2712 12.9461L40.1174 12.8612L39.9345 12.844L39.7727 12.7897L39.611 12.722L39.4479 12.616L39.2743 12.5073L39.082 12.6478L38.8991 12.441L38.7227 12.6796L38.5332 12.5921L38.3502 12.608L38.146 12.494L37.9763 12.6107L37.7881 12.6239L37.6409 12.8016L37.4155 12.677L37.271 12.844L37.0536 12.779L36.9502 13.0416L36.7049 12.9169L36.5419 13.0124L36.408 13.1688L36.225 13.2152L36.0739 13.3266L35.9585 13.495L35.7199 13.4578L35.6775 13.727L35.4322 13.6991L35.2307 13.7469L35.2081 14.0054L35.0835 14.138L34.9735 14.2798L34.8634 14.419L34.7561 14.5609L34.7388 14.7412L34.6633 14.8897L34.5811 15.0541L34.6394 15.2198Z" fill="#FFE8D9"/>
<path d="M19.119 15.2198L19.1562 15.4518L18.8923 15.4637L18.8486 15.7116L18.6829 15.819L18.4429 15.6984L18.2971 15.8588L18.1168 15.9052L17.9245 15.8336L17.7429 15.8455L17.5613 15.8111L17.3704 15.9993L17.198 15.8044L16.9925 15.9755L16.8188 15.8774L16.6478 15.7819L16.4609 15.7726L16.2912 15.6851L16.0711 15.7912L15.9306 15.6056L15.7728 15.4982L15.6084 15.4147L15.3698 15.5207L15.1961 15.4518L15.0529 15.3152L14.9455 15.115L14.7573 15.0819L14.5372 15.0965L14.4842 14.83L14.2071 14.9162L14.0984 14.7465L13.9114 14.6802L13.7908 14.5317L13.7603 14.2984L13.5694 14.2268L13.4474 14.0863L13.3361 13.9364L13.4024 13.7097L13.1465 13.5957L13.2472 13.3995L13.1796 13.1927L13.4342 13.1238L13.3758 12.8241L13.5946 12.791L13.7603 12.7035L13.9075 12.5457L14.1103 12.5643L14.3025 12.5868L14.4789 12.4794L14.6711 12.5921L14.8527 12.5961L15.0397 12.5391L15.2147 12.6624L15.3937 12.6902L15.6018 12.5364L15.7755 12.6253L15.9412 12.7353L16.1308 12.734L16.3137 12.7658L16.4768 12.8639L16.7022 12.7764L16.8745 12.852L16.9766 13.1012L17.1861 13.0747L17.381 13.0959L17.5626 13.1503L17.7363 13.2245L17.8702 13.369L17.9497 13.5931L18.1115 13.6779L18.2931 13.7376L18.423 13.8702L18.5622 13.9881L18.6418 14.1658L18.8764 14.1989L19.0355 14.3156L19.127 14.488L19.013 14.7425L19.1827 14.8724L19.1747 15.0541L19.119 15.2198Z" fill="#FFE8D9"/>
<path d="M14.1565 21.2798L13.9868 21.4628L13.8953 21.6245L13.9484 21.8459L13.9112 22.0607L13.6222 22.0647L13.4923 22.1814L13.3504 22.2861L13.2444 22.5327L13.0177 22.4174L12.8374 22.363L12.6478 22.4783L12.4781 22.3855L12.2355 22.4624L12.0697 22.3365L12.0485 22.0687L11.8112 22.0249L11.6733 21.8738L11.7675 21.6272L11.7768 21.4482L11.6548 21.2798L11.6972 21.0995L11.8072 20.9458L11.7197 20.7111L11.7768 20.5096L11.965 20.4088L12.1798 20.3744L12.3349 20.2935L12.498 20.2378L12.6677 20.2126L12.8374 20.0244L13.0442 19.9766L13.2192 20.1052L13.3929 20.1887L13.5851 20.2511L13.7137 20.4035L13.7999 20.5812L13.8556 20.7615L14.0637 20.8821L14.0557 21.0876L14.1565 21.2798Z" fill="black"/>
<path d="M41.886 21.2798L41.7189 21.4482L41.8568 21.6696L41.7958 21.8605L41.6791 22.0223L41.5956 22.2185L41.3093 22.1774L41.2125 22.3709L41.0454 22.4757L40.8572 22.5446L40.657 22.5115L40.4581 22.538L40.2964 22.3908L40.0538 22.4637L39.9981 22.188L39.7846 22.1535L39.6971 21.9772L39.5075 21.8658L39.5619 21.6365L39.5924 21.4495L39.4678 21.2798L39.5327 21.1022L39.6096 20.9391L39.546 20.7137L39.6799 20.5705L39.7621 20.3849L39.9053 20.2457L40.1426 20.2696L40.3269 20.2616L40.4541 19.9965L40.657 19.9991L40.8426 20.1079L41.0335 20.1224L41.1952 20.2245L41.3079 20.3849L41.5678 20.3704L41.6566 20.5533L41.6884 20.7548L41.8329 20.898L41.7613 21.1048L41.886 21.2798Z" fill="black"/>
<path d="M20.7495 28.7876L20.9364 28.6086L20.9417 28.4297L20.9285 28.2414L21.0531 28.0889L20.9471 27.8569L21.2188 27.7747L21.2838 27.609L21.2785 27.3982L21.4588 27.2988L21.5622 27.153L21.5277 26.8905L21.7969 26.8812L21.8592 26.6903L21.9308 26.5007L22.1548 26.4728L22.3073 26.3721L22.469 26.2846L22.4969 26.0221L22.6586 25.928L22.8919 25.9425L23.0219 25.81L23.0829 25.562L23.2764 25.5236L23.466 25.4838L23.5986 25.3433L23.7762 25.2836L23.9804 25.2797L24.1116 25.1338L24.3026 25.1086L24.4232 24.9323L24.638 24.9654L24.7851 24.8422L24.9456 24.7493L25.1338 24.7281L25.3022 24.6539L25.4719 24.5836L25.6747 24.6101L25.7795 24.3516L26.0181 24.4842L26.1812 24.3927L26.3469 24.3105L26.5444 24.3331L26.6624 24.0825L26.8785 24.1687L27.0098 23.9486L27.2418 24.109L27.3757 23.8903L27.5493 23.82L27.7562 23.8956L27.906 23.7272L28.1367 23.9194L28.2865 23.7497L28.4933 23.8412L28.6391 23.6357L28.8208 23.6079L29.0183 23.6649L29.1827 23.5363L29.359 23.4793L29.5393 23.4382L29.7475 23.5747L29.9185 23.4726L30.1028 23.466L30.3003 23.5509L30.47 23.4355L30.6609 23.4939L30.8346 23.4037L31.0069 23.2937L31.1833 23.2062L31.3715 23.2287L31.5531 23.1969L31.7401 23.2168L31.9217 23.1743L32.1113 23.2234L32.2982 23.2645L32.4852 23.3082L32.6602 23.1545L32.8524 23.2857L33.0314 23.1836L33.213 23.1094L33.396 23.063L33.5855 23.2035L33.7672 23.0829L33.9515 23.0563L34.1384 23.2101L34.3227 23.181L34.5083 23.173L34.6899 23.2234L34.8715 23.1094L35.0532 23.0537L35.2361 23.0285L35.4124 23.242L35.5927 23.23L35.7757 23.2035L35.9573 23.1677L36.1443 23.0709L36.3193 23.1942L36.4943 23.3003L36.6865 23.1253L36.8535 23.3281L37.0418 23.242L37.2128 23.3825L37.3998 23.3175L37.5854 23.2751L37.771 23.2327L37.934 23.4236L38.1263 23.3295L38.3026 23.3812L38.4829 23.3878L38.6526 23.4899L38.8488 23.3825L39.0278 23.4117L39.2108 23.4183L39.3712 23.5654L39.5727 23.4488L39.7503 23.4832L39.8988 23.6874L40.107 23.5509L40.2767 23.6264L40.4265 23.7961L40.6121 23.7776L40.7911 23.824L40.9621 23.9234L41.1543 23.8863L41.3412 23.8717L41.5176 23.9658L41.7111 23.8518L41.8901 23.938L42.0744 23.9314L42.2574 23.8412L42.4403 23.8836L42.6246 23.9048L42.8128 23.9618L43.0011 23.9937L43.1774 23.9022L43.3432 23.7524L43.5314 23.7868L43.7369 23.8863L43.9119 23.8187L44.0869 23.755L44.2685 23.7206L44.4316 23.6158L44.6318 23.6423L44.7657 23.4554L44.9168 23.3374L45.117 23.3546L45.2682 23.2406L45.4564 23.2207L45.642 23.1956L45.8356 23.2062L45.9668 23.0285L46.1365 22.9569L46.3473 23.0603L46.4892 22.8588L46.6629 22.774L46.8723 22.9861L47.0354 22.7806L47.225 22.941L47.4026 22.7634L47.5896 22.7435L47.7632 22.9304L47.9462 22.9224L48.1146 23.0312L48.2962 23.0298L48.4778 23.0431L48.7019 22.8893L48.8132 23.1796L49.04 23.063L49.1593 23.2764L49.3966 23.1664L49.5424 23.2976L49.7439 23.299L49.8619 23.4779L49.9932 23.6171L50.2013 23.6224L50.4068 23.6423L50.4705 23.8783L50.7091 23.8624V24.1634L50.9146 24.1978L51.014 24.3596L51.2818 24.3423L51.368 24.5187L51.4144 24.7255L51.5231 24.8713L51.6809 24.9774L51.8095 25.11L51.832 25.3154L51.9991 25.4242L52.1409 25.5541L52.182 25.741L52.2563 25.9081L52.4206 26.038L52.4962 26.209L52.4724 26.4132L52.4631 26.6054L52.6367 26.7512L52.7322 26.9236L52.5294 27.1423L52.7388 27.3014L52.7813 27.487L52.6116 27.6766L52.7733 27.8622L52.5824 28.0359L52.7296 28.2348L52.6924 28.4191L52.4949 28.5715L52.4313 28.7465L52.5705 28.9547L52.4922 29.1283L52.5652 29.3246L52.4034 29.4836L52.5135 29.6878L52.5028 29.8708L52.426 30.0444L52.3623 30.2194L52.3265 30.3997L52.1595 30.5575L52.2178 30.7524L52.3239 30.9566L52.243 31.1289L52.0402 31.2787L52.1184 31.4776L52.003 31.6433L52.0919 31.8462L52.1064 32.0357L51.9672 32.1948L52.0547 32.403L51.8771 32.5501L51.8227 32.7251L51.8479 32.9227L51.6384 33.0446L51.6544 33.2435L51.4966 33.3628L51.482 33.5577L51.3189 33.6426L51.2089 33.7712L51.0697 33.9011L50.8828 33.8892L50.7011 33.9793L50.5288 33.8348L50.3564 33.7778L50.1549 33.8865L49.9892 33.7844L49.8261 33.6717L49.5994 33.8653L49.4655 33.6187L49.2534 33.7433L49.0704 33.7301L48.8862 33.7261L48.743 33.506L48.5454 33.5696L48.389 33.3986L48.1809 33.5405L48.0244 33.3535L47.8269 33.4357L47.636 33.4888L47.4716 33.3297L47.3006 33.2223L47.0937 33.4304L46.9148 33.3774L46.7411 33.266L46.5608 33.2104L46.3712 33.2965L46.1896 33.2409L46.0079 33.1746L45.8237 33.1534L45.638 33.1825L45.4511 33.3403L45.2682 33.3469L45.0852 33.1799L44.9009 33.1401L44.7206 33.3615L44.531 33.1242L44.3507 33.2356L44.1625 33.1388L43.9822 33.2422L43.8019 33.3297L43.6163 33.2859L43.4227 33.156L43.2437 33.2382L43.074 33.441L42.8831 33.3615L42.6922 33.2806L42.5066 33.2767L42.321 33.2806L42.1367 33.2912L41.9591 33.3734L41.7735 33.3721L41.6104 33.571L41.4089 33.4371L41.2352 33.5418L41.0483 33.5338L40.8573 33.4941L40.685 33.6028L40.5087 33.677L40.3164 33.6386L40.1229 33.5842L39.9333 33.563L39.7464 33.5537L39.5939 33.7937L39.3937 33.6916L39.2068 33.6929L39.0424 33.8374L38.8541 33.8268L38.6592 33.7712L38.4869 33.86L38.3225 34.0111L38.1369 34.0151L37.9234 33.8414L37.7378 33.8454L37.588 34.0999L37.3998 34.0854L37.2049 34.031L37.0418 34.1874L36.8456 34.1251L36.6706 34.2034H36.4837L36.2941 34.1742L36.1151 34.2259L35.9255 34.1928L35.7585 34.3346L35.5676 34.2909L35.3899 34.3532L35.2123 34.4181L35.0213 34.3638L34.8304 34.3134L34.6554 34.3996L34.4645 34.3227L34.2869 34.4168L34.1013 34.3585L33.9196 34.4221L33.7367 34.4195L33.5564 34.3624L33.3747 34.2909L33.1918 34.2895L33.0062 34.3426L32.8259 34.2683L32.6336 34.4301L32.4573 34.3041L32.2717 34.3333L32.0782 34.4579L31.9111 34.2325L31.7255 34.263L31.5293 34.385L31.3636 34.1981L31.1727 34.2537L31.0016 34.1397L30.7988 34.2935L30.6145 34.2842L30.4369 34.2206L30.2619 34.1463L30.0922 34.035L29.8999 34.0893L29.7183 34.0562L29.5155 34.1689L29.3484 34.0509L29.1774 33.9581L28.9772 34.0337L28.8022 33.966L28.6537 33.7765L28.4562 33.8282L28.2838 33.7539L28.085 33.8056L27.9245 33.685L27.7509 33.6227L27.5361 33.7354L27.4009 33.5113L27.2285 33.449L27.0336 33.4676L26.8122 33.5776L26.6332 33.5299L26.5126 33.2873L26.3482 33.1998L26.1175 33.3191L25.973 33.1679L25.7649 33.2104L25.5992 33.1255L25.4401 33.0248L25.2982 32.8776L25.1206 32.8312L24.9681 32.7185L24.7467 32.7755L24.5704 32.7198L24.4259 32.5912L24.2973 32.4348L24.0427 32.5435L23.9313 32.3526L23.8001 32.2081L23.633 32.1338L23.4647 32.0623L23.2817 32.0132L23.0855 31.9814L23.0139 31.7533L22.7607 31.7998L22.7209 31.5373L22.5976 31.4007L22.3431 31.4312L22.2794 31.2177L22.1548 31.0865L21.9599 31.0282L21.8221 30.9062L21.7916 30.6874H21.5118L21.4482 30.4992L21.3726 30.3268L21.3196 30.1439L21.1578 30.0272L21.0863 29.8562L20.9166 29.7249L21.0094 29.4956L21.0385 29.3047L20.8516 29.1575L20.9616 28.9626L20.7495 28.7876Z" fill="#FFE8D9"/>
<path d="M32.2003 28.7876L32.1857 28.6034L32.1844 28.4164L32.0757 28.2507L31.9484 28.1009L32.1327 27.8424L32.0385 27.6753L31.9153 27.5242L31.6872 27.4446L31.6514 27.2524L31.5759 27.0801L31.5016 26.9024L31.3611 26.7778L31.2206 26.6558L31.0694 26.5458L30.8599 26.5047L30.7632 26.339L30.6545 26.1838L30.4516 26.148L30.3349 25.9969L30.1798 25.9001L30.0181 25.8153L29.9452 25.5859L29.8007 25.4653L29.619 25.4096L29.4533 25.3274L29.3154 25.1908L29.1179 25.171L28.8766 25.2479L28.7308 25.1285L28.5982 24.9814L28.4391 24.8859L28.227 24.9151L28.1355 24.6552L27.9008 24.7494L27.7722 24.5717L27.5508 24.6393L27.4368 24.4139L27.2419 24.4126L27.055 24.3941L26.9025 24.2694L26.7368 24.1793L26.5366 24.2032L26.3802 24.0799L26.1893 24.0772L26.0077 24.0467L25.8154 24.052L25.647 23.9698L25.4919 23.8306L25.3063 23.8147L25.1273 23.7736L24.9166 23.8757L24.7548 23.7564L24.5878 23.6556L24.377 23.7736L24.2258 23.5906L24.0349 23.6079L23.8387 23.6636L23.6783 23.5111L23.5006 23.4594L23.2951 23.5761L23.1254 23.4727L22.9611 23.3215L22.7529 23.4753L22.5792 23.3944L22.3897 23.4302L22.2279 23.234L22.0237 23.4024L21.8607 23.1982L21.6618 23.3348L21.4749 23.356L21.3039 23.1982L21.1143 23.2539L20.926 23.3109L20.7404 23.3215L20.5694 23.124L20.3798 23.2075L20.1995 23.1253L20.0152 23.1041L19.8323 23.0537L19.64 23.2552L19.4571 23.2062L19.2741 23.1585L19.0885 23.2526L18.9042 23.1452L18.7199 23.1213L18.5343 23.0378L18.354 23.2433L18.1724 23.2353L17.9908 23.1611L17.8078 23.0537L17.6288 23.173L17.4512 23.2698L17.2669 23.1982L17.0826 23.112L16.905 23.1996L16.7194 23.1107L16.5404 23.1611L16.3667 23.2831L16.1811 23.2181L15.9955 23.1717L15.8178 23.2353L15.6283 23.1478L15.4519 23.2088L15.273 23.2513L15.1046 23.3785L14.9283 23.4289L14.7347 23.3308L14.5544 23.3454L14.3847 23.4488L14.211 23.5071L14.0347 23.5469L13.8491 23.5323L13.6635 23.5151L13.4964 23.6079L13.2896 23.47L13.1305 23.6052L12.9356 23.5469L12.7805 23.6941L12.6148 23.7855L12.4279 23.767L12.2635 23.8863L12.0712 23.8611L11.8896 23.8956L11.7014 23.8783L11.5144 23.8359L11.3288 23.7935L11.1551 23.9738L10.9695 23.9831L10.7853 23.8518L10.6023 23.9062L10.4207 23.8558L10.239 23.8425L10.0601 23.8081L9.86915 23.8704L9.69547 23.7842L9.5165 23.7511L9.33089 23.755L9.14263 23.763L8.96896 23.6941L8.77274 23.7246L8.63354 23.535L8.4307 23.5787L8.28884 23.421L8.09263 23.4342L7.89641 23.4355L7.77444 23.242L7.60342 23.181L7.38467 23.2393L7.26403 23.0418L7.05323 23.1041L6.91933 22.9079L6.68864 23.0935L6.52955 22.9835L6.35986 22.9158L6.1716 22.9702L6.00057 22.8893L5.81762 22.9437L5.63997 22.8124L5.45569 22.8111L5.26875 22.7806L5.08845 22.8389L4.90417 22.8442L4.71061 22.8151L4.57538 23.0723L4.4017 23.1134L4.21345 23.1067L4.04773 23.185L3.83693 23.1333L3.63144 23.1147L3.55719 23.409L3.28939 23.2645L3.17272 23.4461L3.03352 23.5734L2.90624 23.7126L2.73787 23.7855L2.50586 23.7696L2.46874 24.0295L2.27518 24.0746L2.17973 24.2429L1.9212 24.2283L1.82045 24.3914L1.74223 24.5704L1.50757 24.6075L1.45188 24.8037L1.29147 24.9124L1.2676 25.1246L1.20927 25.3049L1.02499 25.4043L0.891086 25.5408L0.877828 25.7424L0.783699 25.9015L0.692221 26.0619L0.720062 26.2687L0.564948 26.4079L0.661729 26.6266L0.393925 26.746L0.34222 26.9263L0.437675 27.1318L0.518547 27.324L0.327637 27.4897L0.474796 27.6793L0.442978 27.8596L0.522524 28.0359L0.368735 28.2282L0.356803 28.4151L0.391273 28.5967L0.356803 28.7876L0.54241 28.9481L0.595441 29.127L0.580857 29.3153L0.676312 29.489L0.700176 29.6706L0.746578 29.8509L0.558319 30.0617L0.762487 30.2208L0.800934 30.4024L0.77707 30.5907V30.7776L0.824798 30.9566L0.818169 31.1435L0.737297 31.3424L0.893737 31.5055L0.803585 31.7056L0.812866 31.8912L1.04885 32.0397L0.881805 32.2545L1.0979 32.403L1.00245 32.6085L0.962677 32.8074L1.1854 32.9466L1.04355 33.1719L1.27821 33.2992L1.30605 33.4795L1.25169 33.7022L1.34317 33.8719L1.45984 34.031L1.6587 34.0973L1.83105 34.1397L1.99412 34.3134L2.16779 34.0814L2.34942 34.1119L2.53371 34.1026L2.73124 34.1318L2.85587 33.9077L3.04943 33.913L3.26553 33.9873L3.4445 33.9475L3.62746 33.9197L3.76799 33.7486L3.96553 33.7738L4.09811 33.5591L4.28769 33.5538L4.46799 33.5087L4.68807 33.6532L4.85777 33.571L5.01818 33.4331L5.22765 33.5604L5.38277 33.3721L5.56705 33.3602L5.76724 33.4729L5.93296 33.3045L6.12652 33.3841L6.29224 33.1799L6.47917 33.1733L6.66611 33.1852L6.84906 33.1613L7.04262 33.3668L7.22558 33.3337L7.40456 33.152L7.59016 33.2449L7.77312 33.1189L7.9574 33.3443L8.14168 33.2395L8.32729 33.1083L8.50892 33.2369L8.69585 33.1613L8.87085 33.3788L9.05778 33.3111L9.24604 33.2183L9.42369 33.339L9.604 33.4066L9.78695 33.4092L9.96991 33.4225L10.1688 33.2502L10.3504 33.2899L10.5281 33.3708L10.7017 33.4967L10.9032 33.3178L11.0756 33.4517L11.2705 33.3642L11.4389 33.5233L11.6351 33.4199L11.8246 33.3933L11.9864 33.6015L12.1707 33.6108L12.3616 33.5763L12.5578 33.502L12.7301 33.6081L12.9158 33.6121L13.108 33.5697L13.2697 33.7473L13.4739 33.6227L13.6489 33.7009L13.8451 33.628L13.9923 33.9024L14.1885 33.8308L14.3754 33.8202L14.5478 33.9183L14.7214 34.0045L14.9256 33.8839L15.0913 34.0284L15.2995 33.8839L15.4891 33.868L15.672 33.8958L15.8377 34.031L16.0021 34.1835L16.2036 34.0827L16.3813 34.1424L16.5603 34.1914L16.7538 34.1437L16.9368 34.157L17.1264 34.1238L17.304 34.1875L17.4777 34.275L17.6474 34.3943L17.8502 34.2471L18.0332 34.2617L18.2016 34.4155L18.3938 34.336L18.5661 34.4937L18.7557 34.4181L18.9387 34.4341L19.1243 34.3147L19.3046 34.3572L19.4889 34.4128L19.6705 34.3386L19.8508 34.2882L20.0338 34.2829L20.2273 34.4646L20.401 34.2789L20.5959 34.4752L20.7775 34.4142L20.9538 34.3055L21.1448 34.4009L21.3198 34.2803L21.5133 34.381L21.6896 34.2949L21.866 34.214L22.0383 34.1092L22.2359 34.2246L22.4281 34.2882L22.6057 34.2219L22.7887 34.2007L22.9531 34.0496L23.1334 34.0164L23.3349 34.1225L23.502 34.0058L23.7061 34.1146L23.8533 33.8892L24.0495 33.9449L24.2112 33.8136L24.4273 33.9687L24.6103 33.9396L24.7548 33.738L24.9285 33.6744L25.1539 33.8401L25.3302 33.7871L25.484 33.6386L25.6908 33.7075L25.8207 33.4742L25.9944 33.4106L26.1906 33.4358L26.3948 33.4795L26.5804 33.453L26.7488 33.3708L26.8681 33.1401L27.0722 33.1733L27.283 33.2223L27.4368 33.1043L27.5508 32.8803L27.7789 32.9664L27.9234 32.8312L28.1183 32.8246L28.2402 32.6443L28.4205 32.6019L28.6406 32.6443L28.7745 32.4971L28.9734 32.4865L29.1285 32.3844L29.2332 32.1909L29.4334 32.1789L29.6588 32.2028L29.7861 32.0556L29.9558 31.9774L30.0526 31.7878L30.2819 31.8011L30.2912 31.4935L30.5431 31.5293L30.734 31.4736L30.8255 31.292L30.8904 31.0878L31.0482 30.9924L31.1795 30.8664L31.2391 30.6755L31.4552 30.6238L31.5029 30.4303L31.727 30.3653L31.7853 30.1823L31.7774 29.9689L31.9126 29.8363L31.9643 29.6626L32.1592 29.5354L32.2069 29.3511L32.2812 29.1721L32.1963 28.9719L32.2003 28.7876Z" fill="#FFE8D9"/>
<path d="M34.4899 24.9389L34.2923 24.9191L34.169 24.7666L33.9742 24.7374L33.9105 24.4869L33.6865 24.5067L33.5247 24.4219L33.3325 24.3821L33.2543 24.1674L33.0687 24.1156L32.8857 24.0613L32.7226 23.9725L32.6046 23.824L32.4986 23.6609L32.423 23.4581L32.195 23.4567L32.0982 23.2857L31.9908 23.1306L31.7071 23.1876L31.7389 22.8694L31.4512 22.9225L31.4526 22.648L31.1622 22.6958L31.1741 22.416L31.0482 22.2861L30.787 22.2927L30.6597 22.1601L30.5669 21.9958L30.433 21.8711L30.262 21.7797L30.2382 21.5556L30.1188 21.4137L29.9001 21.3501V21.1115L29.8166 20.9431L29.6124 20.8609L29.4599 20.7389L29.5222 20.4725L29.3287 20.377L29.2226 20.2232L29.216 20.0071L29.0436 19.8971L29.0145 19.6903L28.9283 19.5179L28.809 19.3641L28.5677 19.3323L28.4471 19.1904L28.3609 18.9823L28.1978 18.8709L28.0135 18.8033L27.8253 18.7596L27.5959 18.8656L27.4355 18.7569L27.2645 18.6694L27.0855 18.6137L26.8972 18.6084L26.7024 18.6641L26.522 18.5952L26.3484 18.4759L26.1522 18.6442L25.9811 18.4135L25.7902 18.562L25.6073 18.5514L25.4243 18.5819L25.24 18.5037L25.0531 18.4361L24.8794 18.6747L24.6951 18.6402L24.5162 18.6774L24.3292 18.6389L24.133 18.5209L23.958 18.6084L23.783 18.6853L23.5987 18.6933L23.4171 18.7145L23.2182 18.6482L23.0419 18.7092L22.8868 18.8709L22.6853 18.8046L22.4984 18.8139L22.3287 18.8948L22.1629 18.9876L21.984 19.03L21.797 19.0446L21.6578 19.2183L21.4126 19.0433L21.2826 19.2474L21.1421 19.4039L20.9591 19.4317L20.7722 19.4516L20.6091 19.5391L20.3851 19.4635L20.2817 19.7035L20.043 19.5988L19.9476 19.8454L19.7607 19.8692L19.5923 19.9395L19.3616 19.8785L19.2237 20.0137L19.0315 20.0416L18.9175 20.2192L18.7902 20.3637L18.5768 20.3611L18.411 20.4433L18.2572 20.5454L18.2095 20.7973L17.9218 20.7111L17.8993 20.9829L17.7296 21.0598L17.4857 21.0571L17.3358 21.1672L17.2165 21.3117L17.2019 21.5742L17.0866 21.7213L16.9315 21.8234L16.6517 21.7889L16.6796 22.0939L16.5125 22.184L16.4065 22.3405L16.1466 22.3285L15.9743 22.4134L15.851 22.5512L15.7728 22.7382L15.5766 22.7939L15.5673 23.0617L15.4267 23.1823L15.2849 23.299L15.1139 23.3838L14.9985 23.531L14.7214 23.4833L14.6233 23.6543L14.4748 23.7617L14.3953 23.9579L14.2534 24.0785L14.093 24.17L13.8623 24.162L13.7921 24.3835L13.5773 24.3914L13.4036 24.4603L13.2618 24.577L13.1942 24.821L12.9834 24.8263L12.8402 24.9482L12.7076 25.0901L12.5366 25.159L12.412 25.3075L12.1335 25.2054L12.0553 25.4282L11.875 25.4891L11.7464 25.627L11.5648 25.6907L11.4826 25.8869L11.3487 26.0102L11.0743 25.9677L10.9417 26.1003L10.8714 26.2992L10.7826 26.4715L10.5877 26.5378L10.4366 26.6492L10.3875 26.852L10.251 26.9766L10.1568 27.1357L10.0998 27.3187L9.89699 27.4035L9.8771 27.6064L9.7949 27.7681L9.61725 27.8848L9.6968 28.1168L9.44092 28.2162L9.38259 28.3952L9.32426 28.5755L9.49396 28.7956L9.47805 28.9732L9.41308 29.1456L9.20361 29.3259L9.36138 29.5075L9.34149 29.6931L9.4343 29.8628L9.42767 30.0498L9.52312 30.2128L9.52445 30.4024L9.48733 30.6145L9.68089 30.7325L9.67691 30.9393L9.87843 31.0375L9.8254 31.2854L9.90759 31.4564L10.2205 31.4577L10.133 31.756L10.3835 31.7892L10.3822 32.0357L10.5029 32.1803L10.7866 32.1577L10.8263 32.3804L11 32.464L11.1246 32.6005L11.3049 32.6695L11.3487 32.9108L11.5834 32.9054L11.6589 33.1162L11.8644 33.1441L11.9718 33.3151L12.1203 33.4265H12.3364L12.5233 33.4702L12.6877 33.5511L12.864 33.6081L13.0099 33.7195L13.1252 33.8945L13.3188 33.917L13.4911 33.978L13.6317 34.1092L13.8372 34.1L14.0069 34.1662L14.089 34.4407L14.2932 34.4301L14.4497 34.5322L14.6114 34.6263L14.8195 34.5931L15.0038 34.6223L15.1682 34.7085L15.3167 34.8397L15.5235 34.8L15.6601 34.9776L15.8642 34.9392L16.0552 34.9405L16.1718 35.2003L16.4184 35.0055L16.5285 35.2985L16.7538 35.1619L16.9076 35.3024L17.0654 35.4297L17.251 35.4443L17.4764 35.2839L17.6142 35.5079L17.7906 35.5663L17.9908 35.5066L18.1565 35.6153L18.3699 35.4761L18.5158 35.6988L18.6987 35.7227L18.9122 35.5663L19.0832 35.6617L19.2768 35.6034L19.4531 35.6657L19.6254 35.7598L19.7925 35.8937L19.9821 35.8699L20.1571 35.956L20.3586 35.8022L20.5389 35.846L20.7218 35.8566L20.8902 36.0422L21.0732 36.07L21.2707 35.9216L21.4603 35.8433L21.6406 35.8964L21.8143 36.0727L21.9985 36.082L22.1815 36.1244L22.3724 35.9825L22.5554 35.9971L22.737 36.1244L22.9213 36.1337L23.1082 35.9998L23.2925 36.0594L23.4781 35.9852L23.6624 36.0939L23.8453 35.9547L24.0309 36.0462L24.2165 36.1748L24.4008 36.1164L24.5851 36.1416L24.7654 36.0064L24.9537 36.0939L25.134 36.0183L25.3236 36.1204L25.5025 36.0117L25.6789 35.8964L25.8764 36.082L26.0474 35.8897L26.233 35.9123L26.4239 35.9772L26.6029 35.9216L26.7885 35.9242L26.9755 35.9388L27.1372 35.7346L27.348 35.9481L27.515 35.7983L27.7126 35.8911L27.881 35.7638L28.0533 35.671L28.2548 35.7731L28.4166 35.6166L28.6022 35.618L28.7984 35.6683L28.9548 35.4986L29.1563 35.5769L29.3287 35.5039L29.5024 35.435L29.7065 35.5079L29.8855 35.4655L30.0539 35.374L30.1984 35.1911L30.388 35.1937L30.5789 35.203L30.7274 35.0466L30.9514 35.1725L31.084 34.963L31.263 34.9272L31.43 34.8464L31.6037 34.7907L31.7827 34.7469L31.9524 34.678L32.1353 34.6462L32.366 34.7483L32.549 34.7072L32.6921 34.5653L32.8539 34.4712L33.0408 34.4447L33.1774 34.2909L33.3842 34.3081L33.5592 34.2471L33.7209 34.1583L33.8416 33.982L34.0113 33.9117L34.1637 33.8109L34.3957 33.8587L34.5707 33.7937L34.6821 33.6147L34.8518 33.5405L35.0692 33.5458L35.1846 33.3801L35.2893 33.2037L35.4153 33.0645H35.638L35.7348 32.8856L35.8448 32.7291L36.0476 32.6933L36.2412 32.639L36.3831 32.5197L36.5488 32.4255L36.6562 32.2691L36.7384 32.0914L36.8935 31.984L36.9836 31.8183L36.9969 31.5943L37.1308 31.471L37.3323 31.3914L37.3164 31.1647L37.5855 31.1117L37.6863 30.9539L37.677 30.7431L37.7738 30.584L37.799 30.3984L37.9501 30.2526L37.8122 30.0285L37.9846 29.8774L37.8772 29.6799L38.0946 29.5141L38.0111 29.3259L38.0389 29.139L37.8692 28.9693L38.0164 28.7638L37.8812 28.602L37.9422 28.3952L37.6982 28.2799L37.7022 28.0863L37.6677 27.902L37.6465 27.7058L37.4012 27.6316L37.335 27.4605L37.331 27.2444L37.2567 27.0681L37.1931 26.8812L37.0327 26.7698L36.8192 26.7115L36.7861 26.4888L36.5793 26.4331L36.3804 26.3774L36.2571 26.2435L36.0994 26.148L36.0768 25.8869L35.8912 25.8246L35.6778 25.8033L35.5253 25.7026L35.4709 25.4586L35.3649 25.281L35.1037 25.3473L35.0175 25.1338L34.8107 25.1206L34.7192 24.9071L34.4899 24.9389Z" fill="#B06837"/>
<path d="M18.8362 24.8727L19.0417 24.8687L19.153 24.695L19.2909 24.5717L19.4566 24.4948L19.7032 24.5505L19.8544 24.4471L19.8915 24.1674L20.1527 24.2363L20.2481 24.0494L20.4191 23.9778L20.4934 23.767L20.6339 23.6543L20.8779 23.6795L20.9335 23.4515L21.1483 23.4329L21.2119 23.2221L21.4506 23.2274L21.4904 22.9914L21.7807 23.0511L21.7674 22.7594L22.0498 22.8018L22.1665 22.6586L22.2593 22.4916L22.4701 22.4465L22.5231 22.2397L22.6318 22.0912L22.8585 22.0554L22.889 21.834L22.95 21.6431L23.1051 21.5384L23.3252 21.4814L23.3159 21.2321L23.4167 21.077L23.5413 20.9405L23.7601 20.8689L23.8542 20.7058L23.9642 20.5547L24.118 20.43L24.1737 20.2444L24.3103 20.1119L24.2784 19.8706L24.3394 19.685L24.4481 19.5272L24.6125 19.4158L24.7093 19.2435L24.9917 19.2859L25.1044 19.1401L25.2277 18.9929L25.4133 18.9545L25.6068 18.9584L25.7222 18.7132L25.9436 18.8285L26.0855 18.6098L26.3002 18.745L26.4686 18.6297L26.6529 18.6058L26.8464 18.6588L27.0122 18.4692L27.2044 18.5554L27.3873 18.5355L27.569 18.4785L27.7533 18.4626L27.9389 18.6204L28.1205 18.6137L28.3061 18.509L28.4838 18.6416L28.6786 18.4454L28.8642 18.4547L29.0273 18.6986L29.2156 18.6456L29.3959 18.6774L29.5894 18.6098L29.7631 18.6946L29.9421 18.7357L30.1197 18.7821L30.3252 18.6814L30.5122 18.6946L30.6766 18.806L30.8211 18.9969L31.0438 18.8524L31.1883 19.0327L31.4097 18.9134L31.5436 19.1215H31.7332L31.944 19.0632L32.0859 19.2276L32.237 19.3535L32.4067 19.4198L32.6215 19.3628L32.8044 19.3999L32.9091 19.6412L33.0961 19.6637L33.3413 19.5444L33.4978 19.6465L33.6224 19.8228L33.747 19.9886L33.926 20.0336L34.166 19.9594L34.2985 20.1039L34.398 20.3041L34.6313 20.2603L34.7082 20.4884L34.866 20.5772L35.0529 20.6209L35.1603 20.7853L35.3194 20.8715L35.4798 20.9603L35.6495 21.0399L35.7317 21.2268L35.8762 21.3422L36.14 21.3183L36.2951 21.4217L36.3402 21.6484L36.4436 21.8088L36.5722 21.9414L36.8003 21.9639L36.909 22.1191L36.9647 22.3312L37.1953 22.3511L37.3995 22.4001L37.3836 22.6931L37.5878 22.7408L37.8131 22.7634L37.8277 23.0246L38.0213 23.0829L38.1738 23.1863L38.2679 23.36L38.4124 23.4727L38.5609 23.5827L38.651 23.7643L38.8777 23.7736L39.0474 23.8532L39.0991 24.0905L39.233 24.2204L39.4876 24.1793L39.6175 24.3132L39.709 24.5094L39.9291 24.5068L40.0457 24.6672L40.2791 24.6327L40.4183 24.756L40.5535 24.8899L40.7152 24.9801L40.7948 25.2121L40.9963 25.2306L41.227 25.2094L41.3529 25.3579L41.5571 25.3857L41.6658 25.5554L41.813 25.6695L41.9946 25.7371L42.1404 25.8537L42.212 26.0579L42.4003 26.1242L42.4772 26.3138L42.5421 26.51L42.7635 26.5484L42.9531 26.624L43.0658 26.7738L43.1228 26.9687L43.3031 27.0628L43.3827 27.2352L43.388 27.4526L43.5723 27.5547L43.6836 27.7071L43.6187 27.9431L43.8361 28.0479L43.7473 28.2772L44.027 28.382L44.0204 28.5795L43.8944 28.7916L44.0177 28.9573L44.0376 29.1403L43.9488 29.3259L44.0774 29.5115L43.9382 29.6839L43.8944 29.8575L43.8546 30.0312L43.9474 30.2433L43.787 30.3852L43.7738 30.5734L43.7976 30.7856L43.6253 30.9075L43.6412 31.1276L43.5418 31.2867L43.3177 31.3609L43.3283 31.5956L43.0711 31.6314L43.0181 31.8236L42.9226 31.9841L42.7304 32.0556L42.6044 32.1882L42.5713 32.4189L42.3221 32.4176L42.1484 32.4931L42.106 32.7305L41.8846 32.7424L41.7957 32.928L41.6168 32.9943L41.4524 33.0765L41.3808 33.3005L41.1819 33.3297L41.0294 33.4318L40.8942 33.5657L40.7126 33.6187L40.5535 33.7089L40.3785 33.7685L40.2552 33.929L40.0325 33.8945L39.8986 34.0363L39.7647 34.1848L39.6003 34.267L39.4186 34.3108L39.2741 34.442L39.1018 34.511L38.8592 34.3969L38.6868 34.4579L38.5556 34.6303L38.4111 34.7695L38.1791 34.6647L38.0186 34.7629L37.8344 34.7894L37.7164 35.0227L37.4777 34.8755L37.3518 35.093L37.1861 35.1845L36.9673 35.0877L36.787 35.1235L36.6054 35.1487L36.4383 35.2375L36.2448 35.2136L36.0883 35.3502L35.9014 35.3568L35.7582 35.5557L35.5249 35.3422L35.3658 35.4801L35.2067 35.6206L34.9866 35.4509L34.8143 35.5212L34.6525 35.667L34.459 35.6233L34.2906 35.7307L34.0878 35.618L33.9181 35.7307L33.7232 35.6657L33.5707 35.907L33.3864 35.911L33.1982 35.8871L33.0006 35.7837L32.8362 35.9733L32.64 35.854L32.4703 36.0223L32.2821 35.9879L32.0951 35.964L31.9162 36.0502L31.7213 35.8964L31.537 35.8937L31.3567 35.9428L31.1737 35.9759L30.9961 36.135L30.8105 36.1165L30.6262 36.1377L30.4366 35.9269L30.255 36.086L30.068 35.9521L29.8838 35.9375L29.6995 35.96L29.5152 36.0488L29.3309 36.0926L29.1493 35.9547L28.9624 36.1284L28.7821 35.9666L28.5938 36.1032L28.4095 36.074L28.2279 36.0316L28.0436 36.025L27.862 35.9706L27.6737 36.0422L27.5 35.8738L27.3091 35.9653L27.1262 35.9428L26.9339 36.0263L26.7523 35.9945L26.5747 35.9176L26.3798 36.0038L26.2207 35.7718L26.0404 35.7346L25.8415 35.8433L25.6546 35.8553L25.469 35.85L25.2953 35.7651L25.1375 35.5835L24.936 35.6723L24.7478 35.6829L24.5529 35.7293L24.4057 35.5119L24.2029 35.5915L24.0292 35.5212L23.8343 35.557L23.6991 35.313L23.5214 35.2653L23.2881 35.4602L23.1568 35.2176L22.9368 35.3449L22.8002 35.1354L22.5669 35.2971L22.4104 35.1699L22.2712 34.9869L22.0883 34.9604L21.9318 34.849L21.6932 34.9962L21.5076 34.9697L21.3273 34.9219L21.1708 34.8079L20.9972 34.7456L20.8619 34.5759L20.6472 34.625L20.4801 34.5441L20.3422 34.3916L20.1261 34.4341L20.0307 34.1861L19.8 34.2538L19.6475 34.145H19.4434L19.283 34.0509L19.1849 33.8375L18.9436 33.9011L18.7752 33.8242L18.7248 33.5352L18.4981 33.5617L18.3271 33.4901L18.1627 33.4039L18.0063 33.3058L17.9347 33.0831L17.7955 32.9638L17.5688 32.9651L17.4309 32.8418L17.3606 32.635L17.1392 32.6164L16.996 32.4998L16.9523 32.2771L16.8011 32.1736L16.7083 32.0092L16.5837 31.8793L16.2987 31.886L16.1979 31.7269L16.2403 31.4644L16.0362 31.3875L15.9633 31.2151L15.8771 31.0547L15.8492 30.8651L15.7776 30.7007L15.5059 30.6172L15.649 30.3693L15.5722 30.2062L15.5191 30.0352L15.4581 29.8642L15.4873 29.6786L15.4449 29.5036L15.3627 29.3259L15.2686 29.135L15.3242 28.9507L15.5204 28.7943L15.3454 28.5702L15.4263 28.3965L15.5032 28.2242L15.7352 28.1168L15.783 27.9431L15.771 27.7337L15.954 27.6276L16.0083 27.45L16.1555 27.3306L16.1661 27.1145L16.2483 26.9435L16.4551 26.8772L16.5837 26.7486L16.5572 26.4702L16.7508 26.3999L16.9178 26.3085L17.0888 26.2236L17.2413 26.1229L17.3712 25.9929L17.5303 25.9015L17.5741 25.6535L17.7915 25.639L17.9108 25.4865L18.1256 25.4785L18.2621 25.3539L18.4146 25.2492L18.579 25.1696L18.7394 25.0782L18.8362 24.8727Z" fill="#B06837"/>
<path d="M36.6983 24.8819L36.5061 24.8395L36.3563 24.7308L36.233 24.577L35.9864 24.6155L35.8246 24.5227L35.81 24.2138L35.5356 24.2814L35.3765 24.1819L35.301 23.9711L35.118 23.9062L34.9947 23.7604L34.821 23.6808L34.6341 23.6145L34.5108 23.47L34.426 23.2844L34.3159 23.1293L34.0905 23.1014L33.9885 22.9371L33.9208 22.7395L33.6689 22.7302L33.6729 22.4651L33.5178 22.3577L33.4316 22.1853L33.2288 22.1204L33.1453 21.9467L32.9464 21.8738L32.7767 21.7717L32.7064 21.5874L32.5553 21.4761L32.5619 21.2321L32.4559 21.081L32.3591 20.9232L32.1523 20.8596L32.0369 20.7164L31.8288 20.6581L31.6922 20.5361L31.6458 20.3293L31.4881 20.2272L31.3873 20.0708L31.2428 19.9581L31.1699 19.7698L31.0307 19.6505L30.7894 19.6412L30.7682 19.3933L30.5203 19.3986L30.4195 19.2369L30.2936 19.1029L30.2206 18.8988L30.1119 18.737L29.9436 18.6522L29.7792 18.5647L29.5233 18.6177L29.4981 18.3181L29.2356 18.395L29.1799 18.1245L28.9545 18.1511L28.814 18.0225L28.6549 17.9257L28.4614 17.9098L28.2996 17.8183L28.0968 17.8422L27.9509 17.7003L27.7481 17.7493L27.5824 17.6605L27.4312 17.4776L27.2112 17.6976L27.0428 17.5969L26.8678 17.455L26.6809 17.5876L26.4939 17.4391L26.3216 17.6154L26.1439 17.6473L25.9557 17.6181L25.7528 17.5399L25.5977 17.687L25.4426 17.805L25.2185 17.7082L25.0687 17.8342L24.9428 18.0092L24.7147 17.9416L24.557 18.0384L24.3475 18.037L24.1831 18.1259L24.0399 18.2492L23.9736 18.4904L23.8199 18.5859L23.6409 18.6469L23.4486 18.6933L23.4062 18.9412L23.2074 18.9823L23.0191 19.0393L22.8322 19.1016L22.8096 19.3575L22.6572 19.4609L22.5007 19.5603L22.2674 19.5789L22.2329 19.8096L22.168 20.0045L22.0168 20.1119L21.7729 20.1291L21.6231 20.2418L21.5316 20.4075L21.4242 20.5586L21.4163 20.7973L21.1869 20.8397L21.0132 20.9325L21.0397 21.195L20.8276 21.2573L20.8064 21.4747L20.6075 21.549L20.4604 21.667L20.2973 21.773L20.2549 21.9799L20.0865 22.078L19.9394 22.1933L19.9632 22.4717L19.7763 22.5513L19.6583 22.6958L19.4806 22.7806L19.3825 22.9477L19.185 23.0073L19.1333 23.2261L18.8748 23.2141L18.7926 23.4024L18.6176 23.4819L18.538 23.6782L18.428 23.8399L18.2198 23.8744L18.135 24.0719L17.9123 24.0838L17.716 24.1263L17.5662 24.2336L17.4363 24.3715L17.374 24.6128L17.1659 24.6367L17.0426 24.7905L16.8424 24.8196L16.7337 24.9999L16.4857 24.9456L16.4301 25.2028L16.1503 25.11L15.9939 25.2121L15.8626 25.3499L15.7009 25.4441L15.5617 25.57L15.5511 25.8524L15.3522 25.8988L15.1109 25.9054L15.046 26.1083L14.9439 26.2687L14.7437 26.331L14.5979 26.4503L14.574 26.6757L14.4852 26.8388L14.3765 26.9859L14.2015 27.0854L14.0331 27.1954L13.9827 27.3837L14.0211 27.6157L13.9456 27.7774L13.642 27.8424L13.752 28.0863L13.7533 28.2772L13.5916 28.4178V28.606L13.5253 28.7784L13.5187 28.9613L13.3622 29.1363L13.3291 29.3259L13.3848 29.5128L13.52 29.6865L13.5929 29.8575L13.6499 30.0272L13.5585 30.2341L13.524 30.4382L13.5823 30.6172L13.8461 30.7087L13.9005 30.881L13.8833 31.0931L13.8965 31.2986L14.053 31.4206L14.22 31.5293L14.4056 31.6181L14.4533 31.8091L14.6151 31.9085L14.5846 32.1776L14.7463 32.2784L14.989 32.2956L15.0698 32.4706L15.0897 32.7199L15.3045 32.7543L15.4861 32.8219L15.6121 32.9545L15.7592 33.0606L15.8998 33.1759L16.0668 33.2541L16.2338 33.331L16.3664 33.4596L16.4473 33.6744L16.6753 33.6505L16.8053 33.7897L16.9299 33.9396L17.1685 33.8812L17.2388 34.1411L17.4482 34.1331L17.614 34.21L17.7943 34.2551L17.9573 34.3346L18.0939 34.4791L18.2768 34.5163L18.477 34.507L18.6467 34.5719L18.7409 34.8371L18.9464 34.8106L19.1465 34.7933L19.2606 35.0227L19.4634 35.0002L19.6636 34.9723L19.8054 35.1327L19.9685 35.2255L20.1926 35.1142L20.3464 35.2362L20.5081 35.3396L20.6672 35.4562L20.8926 35.3091L21.0318 35.5093L21.2532 35.3648L21.4083 35.5079L21.5634 35.6538L21.7676 35.5755L21.9664 35.5132L22.1255 35.6511L22.2833 35.8062L22.4848 35.7174L22.6558 35.8076L22.8401 35.8221L23.0377 35.7346L23.1954 35.9256L23.4009 35.7718L23.5746 35.8473L23.7642 35.7996L23.9286 35.9839L24.1075 36.0303L24.3117 35.8261L24.4801 35.9879L24.6657 35.968L24.8513 35.9401L25.0237 36.1165L25.2159 35.9746L25.3949 36.0435L25.5818 35.9706L25.7648 35.9839L25.9437 36.1125L26.128 36.1151L26.3123 36.1483L26.4979 35.9348L26.6809 36.0091L26.8638 36.0886L27.0481 36.1629L27.2284 35.9388L27.414 36.0568L27.5943 35.968L27.7799 36.0475L27.9655 36.1072L28.1405 35.9388L28.3274 36.0104L28.5064 35.9441L28.6973 36.029L28.879 36.0024L29.0553 35.9202L29.2436 35.9667L29.4199 35.8951L29.5922 35.7956L29.7924 35.9242L29.9502 35.7161L30.1517 35.8513L30.3466 35.9096L30.5176 35.8168L30.7006 35.7956L30.8663 35.6776L31.0373 35.5981L31.2242 35.6087H31.4112L31.565 35.4509L31.7479 35.439L31.9348 35.4377L32.1483 35.5504L32.2835 35.3303L32.5009 35.4456L32.6349 35.2322L32.843 35.3051L32.9835 35.1301L33.2116 35.26L33.3826 35.1924L33.5112 34.9816L33.6955 34.9604L33.8784 34.9339L34.0866 34.9736L34.2059 34.7602L34.3875 34.7284L34.6169 34.8172L34.7707 34.7032L34.9178 34.5772L35.1047 34.5507L35.2678 34.4659L35.4402 34.4036L35.5489 34.1994L35.7358 34.1702L35.9108 34.1146L36.0447 33.974L36.3046 34.0761L36.3934 33.8547L36.5909 33.8335L36.6638 33.5962L36.9383 33.6969L36.9993 33.4503L37.2087 33.4384L37.3983 33.3894L37.4858 33.1971L37.5627 32.9956L37.7669 32.9638L37.9299 32.8763L38.044 32.7278L38.1553 32.5793L38.3648 32.5382L38.4695 32.3818L38.6273 32.281L38.797 32.1856L38.7904 31.9377L39.0529 31.9151L39.1563 31.7587L39.1364 31.52L39.2345 31.3676L39.4121 31.2615L39.4214 31.0573L39.4572 30.8744L39.5023 30.6994L39.6959 30.5827L39.6243 30.3666L39.6601 30.1943L39.8298 30.0498L39.729 29.8496L39.8377 29.6839L39.7675 29.5009L40.014 29.3259L39.961 29.1376L39.8523 28.96L39.8828 28.7704L39.8801 28.5822L39.8205 28.4045L39.6998 28.2467L39.6362 28.0757L39.6309 27.8795L39.5964 27.6899L39.5354 27.5096L39.3936 27.3757L39.196 27.2803L39.1139 27.1159L39.143 26.8666L39.0012 26.7393L38.7864 26.6757L38.7294 26.4808L38.6127 26.3363L38.4072 26.2793L38.3051 26.1202L38.1911 25.9717L38.1076 25.7848L37.8491 25.806L37.796 25.5766L37.5773 25.5581L37.3983 25.4931L37.2445 25.395L37.1994 25.1299L36.9979 25.1007L36.8972 24.9098L36.6983 24.8819Z" fill="#FFE8D9"/>
<path d="M31.1608 24.6566L31.1992 24.8395L31.0189 24.9588L31.0958 25.1988L30.9778 25.346L30.7418 25.3698L30.6092 25.4812L30.4661 25.5793L30.3322 25.6973L30.1969 25.8206L30.006 25.8365L29.9251 26.1003L29.7409 26.1361L29.5619 26.1812L29.4015 26.2806L29.2145 26.2965L29.0236 26.2872L28.8566 26.3694L28.6763 26.4026L28.492 26.4066L28.3289 26.5338L28.1208 26.3827L27.9405 26.3933L27.7748 26.5312L27.5945 26.5643L27.4195 26.6863L27.2285 26.5657L27.0496 26.6571L26.864 26.6121L26.681 26.6293L26.4994 26.5511L26.3151 26.6333L26.1388 26.4821L25.9439 26.685L25.7676 26.5802L25.5766 26.6425L25.4069 26.5193L25.2346 26.4344L25.0503 26.4357L24.8541 26.5007L24.6738 26.4583L24.4816 26.4715L24.3543 26.2249L24.1753 26.1958L24.0043 26.1401L23.8107 26.1454L23.6172 26.1427L23.4886 25.9757L23.2539 26.0486L23.181 25.7861L22.9967 25.7477L22.7607 25.7728L22.7355 25.4997L22.6003 25.3897L22.4359 25.3022L22.4054 25.11L22.237 25.0039L22.2874 24.8117L22.1694 24.6566L22.2914 24.5028L22.245 24.3119L22.2384 24.0958L22.4929 24.0573L22.481 23.7961L22.6759 23.7365L22.8482 23.6636L23.0086 23.5814L23.0975 23.3666L23.3136 23.3878L23.4766 23.3056L23.5933 23.1054L23.7802 23.0749L23.999 23.1518L24.1223 22.9278L24.3039 22.8933L24.516 22.9848L24.6619 22.7978L24.8475 22.7886L25.041 22.8257L25.2174 22.77L25.4149 22.8708L25.6005 22.9012L25.7742 22.8244L25.9571 22.8416L26.1348 22.7673L26.3164 22.774L26.498 22.6984L26.681 22.7779L26.8653 22.6136L27.0416 22.8429L27.2312 22.6732L27.4115 22.7369L27.5958 22.7196L27.7801 22.7209L27.9643 22.7302L28.1499 22.7236L28.3289 22.774L28.496 22.8814L28.6816 22.8867L28.8301 23.0537L29.0528 22.9145L29.2053 23.0511L29.3935 23.0617L29.5234 23.2473L29.6839 23.3268L29.9358 23.1942L30.071 23.3414L30.1969 23.4965L30.3825 23.5376L30.4873 23.706L30.6344 23.8041L30.8558 23.8266L31.0017 23.9486L31.1051 24.109L31.1342 24.3052L31.2204 24.4709L31.1608 24.6566Z" fill="black"/>
<path d="M52.3 27.5653L52.4683 27.7496L52.4272 27.9338L52.2628 28.1155L52.4445 28.3037L52.3424 28.4854L52.406 28.671L52.4286 28.8579L52.2628 29.0329L52.4219 29.2265L52.2642 29.4001L52.3888 29.595L52.1966 29.7634L52.2655 29.9543L52.243 30.1373L52.2164 30.3189L52.1979 30.5018L52.3265 30.7034L52.1581 30.8678L52.0998 31.0454L52.1833 31.2443L52.1263 31.4219L52.1077 31.6049L51.9235 31.7587L52.0958 31.9787L51.9699 32.1418L51.9102 32.3168L51.938 32.5117L51.7445 32.6562L51.893 32.8803L51.8757 33.0659L51.6888 33.209L51.7021 33.4039L51.6225 33.5723L51.5788 33.7513L51.5363 33.9303L51.5244 34.1198L51.4913 34.3028L51.2579 34.4195L51.3587 34.6475L51.2659 34.8106L51.0949 34.9445L51.2168 35.1858L51.0259 35.3104L50.9689 35.4854L50.9901 35.6935L50.835 35.8288L50.8204 36.0223L50.7395 36.188L50.5208 36.2914L50.4147 36.4439L50.5288 36.7011L50.2808 36.7846L50.1841 36.9411L50.3166 37.2168L50.2132 37.3706L50.0767 37.5072L49.9945 37.6729L49.8327 37.7922L49.8394 38.011L49.7717 38.1846L49.5437 38.2629L49.4297 38.4074L49.3157 38.5519L49.2865 38.7534L49.1871 38.9072L49.0929 39.0663L48.9962 39.224L48.9087 39.3884L48.6926 39.4574L48.6767 39.6761L48.5056 39.7769L48.4964 40.0049L48.2657 40.0553L48.145 40.1932L48.0138 40.3231L47.9356 40.4981L47.852 40.6691L47.6439 40.7301L47.5511 40.8932L47.4185 41.0204L47.2873 41.149L47.1255 41.2485L46.9916 41.3718L46.916 41.556L46.7212 41.6197L46.684 41.8464L46.5873 42.0121L46.3155 41.9882L46.2465 42.1845L46.0768 42.2706L45.9363 42.3873L45.8051 42.5159L45.7534 42.7426L45.6248 42.8778L45.3265 42.797L45.2761 43.0316L45.06 43.0489L44.9499 43.2093L44.7604 43.2597L44.6927 43.4797L44.4912 43.5129L44.4024 43.7051L44.2274 43.778L44.0855 43.896L43.9516 44.0273L43.7872 44.1121L43.6666 44.2659L43.3802 44.1545L43.2835 44.3468L43.1761 44.5258L42.9905 44.5748L42.7611 44.5417L42.663 44.7405L42.4443 44.7233L42.3899 45.0083L42.2122 45.0667L41.9948 45.0468L41.8888 45.243L41.7138 45.304L41.4711 45.2297L41.3319 45.3623L41.1689 45.4458L41.0588 45.6434L40.8799 45.6938L40.6465 45.6235L40.498 45.7375L40.3389 45.833L40.1613 45.8847L40.0314 46.0504L39.8378 46.0636L39.6456 46.0729L39.5077 46.2267L39.3128 46.2307L39.1153 46.2254L39.0251 46.5104L38.7812 46.3792L38.6844 46.6523L38.4471 46.5316L38.2906 46.6403L38.0971 46.6417L37.9314 46.7225L37.8028 46.9267L37.5973 46.8883L37.409 46.9002L37.2672 47.0659L37.0285 46.9068L36.8747 47.0354L36.7262 47.1852L36.5128 47.1004L36.3524 47.2131L36.18 47.282L36.013 47.3695L35.8009 47.2767L35.6153 47.29L35.4336 47.3165L35.2666 47.408L35.13 47.6373L34.9285 47.5777L34.731 47.5286L34.5586 47.6028L34.3664 47.5724L34.2232 47.8004L34.0044 47.6294L33.8414 47.758L33.6743 47.8733L33.4861 47.8574L33.3071 47.9038L33.1029 47.7924L32.9293 47.8733L32.7702 48.0417L32.5859 48.0576L32.3777 47.8985L32.2173 48.0828L32.0211 48.0059L31.8541 48.1477L31.6499 47.9926L31.4935 48.2379L31.3025 48.1835L31.1077 48.1L30.9274 48.1345L30.7616 48.3294L30.5601 48.1491L30.3811 48.2061L30.1902 48.1345L30.0166 48.2564L29.8309 48.2445L29.6599 48.4275L29.465 48.283L29.2914 48.454L29.1031 48.4089L28.9162 48.3625L28.7319 48.3506L28.5516 48.4315L28.3673 48.4606L28.179 48.3373L27.9961 48.3996L27.8145 48.4818L27.6302 48.4885L27.4459 48.4845L27.2616 48.5362L27.0747 48.3121L26.8904 48.3519L26.7061 48.3625L26.5218 48.5004L26.3376 48.4208L26.1533 48.3479L25.969 48.4725L25.7847 48.4752L25.6004 48.4725L25.4148 48.4818L25.2359 48.3055L25.0529 48.2936L24.862 48.4832L24.6817 48.3917L24.4987 48.3585L24.3184 48.2631L24.1262 48.4381L23.9512 48.2737L23.7616 48.3479L23.5813 48.2909L23.3891 48.4023L23.2074 48.3572L23.0271 48.3042L22.8482 48.2326L22.6652 48.2101L22.4677 48.3532L22.298 48.1928L22.1031 48.2869L21.9201 48.2564L21.7531 48.096L21.5516 48.2326L21.3792 48.1172L21.1949 48.1053L21 48.1796L20.8396 47.982L20.6514 48.0072L20.4856 47.8627L20.3014 47.8547L20.1091 47.8972L19.9302 47.8468L19.7233 47.9714L19.5444 47.9263L19.3826 47.7765L19.197 47.7686L19.0313 47.6519L18.8178 47.7938L18.6627 47.628L18.4877 47.5618L18.2875 47.6214L18.1271 47.4915L17.9442 47.4716L17.7254 47.6015L17.5955 47.3457L17.4178 47.2979L17.2017 47.4133H17.0108L16.8836 47.1667L16.7046 47.1256L16.511 47.1402L16.3042 47.1998L16.1252 47.1508L16.0032 46.9082L15.8044 46.9333L15.6294 46.879L15.4067 46.9771L15.2794 46.7676L15.0924 46.7491L14.9214 46.6775L14.7769 46.533L14.5462 46.6403L14.3911 46.525L14.2281 46.4322L14.0849 46.289L13.9112 46.2307L13.6871 46.3049L13.4896 46.3063L13.3318 46.2028L13.1383 46.1883L13.019 45.992L12.8625 45.8926L12.7101 45.7813L12.4661 45.8807L12.368 45.6487L12.2063 45.5612L12.0498 45.4617L11.8788 45.3941L11.6892 45.365L11.4797 45.3742L11.3445 45.235L11.1934 45.125L10.9799 45.1383L10.8832 44.9275L10.6604 44.9527L10.5915 44.6968L10.3277 44.7922L10.2667 44.5284L9.98561 44.6477L9.92993 44.3786L9.75758 44.3083L9.56534 44.2725L9.42084 44.1545L9.20739 44.1479L9.14906 43.9L8.90511 43.9358L8.7964 43.7674L8.67576 43.6176L8.50473 43.542L8.32045 43.4837L8.17329 43.3723L7.99564 43.3021L7.88428 43.1443L7.71988 43.0555L7.59394 42.9176L7.52234 42.7134L7.38049 42.5968L7.12992 42.6114L7.11799 42.3409L6.99469 42.2057L6.83162 42.1129L6.59431 42.1023L6.50814 41.9246L6.43787 41.731L6.31988 41.5905L6.05473 41.5985L5.9606 41.4328L5.76306 41.3691L5.78692 41.0907L5.60397 41.0098L5.38654 40.9621L5.29771 40.7924L5.12537 40.6983L5.09753 40.4782L5.0604 40.2687L4.9265 40.1428L4.68124 40.107L4.61362 39.924L4.60832 39.696L4.36438 39.6523L4.38294 39.4096L4.15889 39.346L4.00775 39.228L4.05017 38.9735L3.80093 38.9231L3.71873 38.756L3.69089 38.5532L3.57555 38.41L3.42574 38.2867L3.43104 38.068L3.29714 37.9354L3.13672 37.8161L3.20301 37.5668L2.93123 37.5085L2.93256 37.299V37.0922L2.83577 36.9371L2.7032 36.7979L2.67403 36.6096L2.55206 36.4638L2.47517 36.2981L2.42744 36.1191L2.32403 35.964L2.26967 35.789L2.20736 35.6166L2.13842 35.4469L1.98861 35.3091L1.84278 35.1672V34.971L1.8335 34.7787L1.71948 34.6236L1.7102 34.4341L1.69827 34.2458L1.46891 34.1251L1.41853 33.9475L1.56702 33.7128L1.30717 33.5948L1.396 33.3801L1.41986 33.1852L1.38672 33.0049L1.17857 32.867L1.30319 32.6496L1.26342 32.4706L1.02346 32.3354L0.991639 32.1524L0.965124 31.9695L1.10831 31.756L1.06986 31.577L0.905464 31.4193L0.91607 31.231L0.996942 31.0335L0.896184 30.8624L0.86304 30.6821L0.925351 30.4899L0.886904 30.3109L0.806032 30.1346L0.774214 29.953L0.813987 29.766L0.753002 29.5871L0.829896 29.3962L0.787471 29.2159L0.75963 29.0342L0.629706 28.8566L0.770236 28.667L0.68141 28.4867L0.67213 28.3024L0.615122 28.1194L0.776865 27.9325L0.69732 27.7496L0.731789 27.5653L0.743721 27.3823L0.530273 27.1967L0.75035 27.0177L0.591259 26.8308L0.745047 26.6532L0.800729 26.4715L0.607168 26.2806L0.646941 26.099L0.635009 25.9134L0.67213 25.7331L0.597887 25.5435L0.767585 25.3725L0.844479 25.1961L0.835199 25.0119L0.711903 24.8143L0.685388 24.6274L0.729138 24.4471L0.946563 24.2893L0.802055 24.0852L0.856411 23.9075L1.01815 23.7471L0.920048 23.5469L1.06058 23.3838L1.14278 23.2115L1.13482 23.0259L1.02743 22.8204L1.03804 22.6348L1.14543 22.469L1.16134 22.2861L1.15338 22.0965L1.32706 21.9467L1.35092 21.7651L1.22232 21.5463L1.49145 21.423L1.48482 21.2334L1.58558 21.0704L1.48747 20.8556L1.60016 20.6965L1.72876 20.5427L1.72081 20.3505L1.63596 20.1344L1.89051 20.0204L1.95414 19.8493L1.86797 19.6306L1.86266 19.4357L1.93558 19.266L1.96607 19.0831L2.08274 18.9293L2.23653 18.7901L2.19145 18.5779L2.19013 18.3817L2.45661 18.2876L2.51361 18.1139L2.56399 17.9376L2.55604 17.7361L2.59581 17.5544L2.76286 17.4258L2.83577 17.2588L2.96437 17.1156L3.05585 16.9579L3.07441 16.7656L3.1871 16.6171L3.22025 16.4302L3.32896 16.2804L3.29449 16.059L3.32233 15.8681L3.54638 15.7766L3.59411 15.595L3.71741 15.4544L3.85529 15.3205L3.90964 15.1429L3.87517 14.9149L4.03957 14.7969L4.18805 14.6709L4.23048 14.4853L4.36836 14.3541L4.38692 14.1525L4.48767 13.9988L4.64146 13.8794L4.57517 13.6209L4.77006 13.5281L4.86154 13.369L5.00074 13.2417L5.01002 13.027L5.11609 12.8772L5.31495 12.7923L5.43957 12.6558L5.54033 12.5046L5.53503 12.2739L5.73787 12.1957L5.76836 11.9902L5.96722 11.9107L6.15018 11.8219L6.15416 11.5938L6.35435 11.5196L6.46439 11.3737L6.4803 11.1775L6.29999 11.0648L6.2284 10.8819L6.15548 10.7082L6.04942 10.5544L5.96722 10.3861L5.9195 10.2031L5.7909 10.0546L5.7498 9.87033L5.87707 9.62772L5.75643 9.47658L5.55756 9.34268L5.58806 9.14249L5.47537 8.97809L5.49393 8.78453L5.40775 8.61086L5.52309 8.40536L5.43825 8.23169L5.52442 8.03945L5.45018 7.8618L5.48465 7.67752L5.48067 7.49456L5.39847 7.31161L5.31628 7.12335L5.33484 6.93774L5.38919 6.75479L5.34412 6.56255L5.4926 6.39683L5.59866 6.22846L5.59203 6.04153L5.58143 5.85062L5.61059 5.66766L5.657 5.48869L5.80416 5.34153L5.83465 5.15857L5.86382 4.97429L6.04942 4.85232L6.03219 4.64683L6.10245 4.47713L6.27878 4.36046L6.14885 4.08338L6.41666 4.02372L6.36495 3.77713L6.43389 3.59947L6.67783 3.53981L6.8409 3.43375L6.9589 3.29587L7.03446 3.12485L7.08087 2.92201L7.19223 2.77352L7.27443 2.59455L7.38844 2.44474L7.61382 2.41292L7.70663 2.23792L7.87367 2.15042L8.05 2.07485L8.1375 1.88394L8.37879 1.90515L8.50871 1.77125L8.59356 1.55913L8.73674 1.4345L8.94621 1.42257L9.11591 1.34435L9.34659 1.39341L9.41553 1.09511L9.58921 1.01954L9.77349 0.969162L9.97235 0.967836L10.1725 0.979768L10.3714 0.998329L10.5398 0.921434L10.7294 0.924086L10.8619 0.650979L11.0847 0.831283L11.2544 0.715941L11.4479 0.783555L11.6136 0.554198L11.8138 0.755714L11.9941 0.648327L12.1811 0.759691L12.3667 0.552872L12.543 0.709312L12.7193 0.782229L12.9102 0.690752L13.0998 0.652305L13.2868 0.645676L13.4313 0.884313L13.6102 0.906851L13.8197 0.803441L13.9695 0.955904L14.1578 0.95723L14.3381 0.993025L14.5131 1.04738L14.6589 1.17598L14.8432 1.20647L15.0686 1.15212L15.1587 1.39208L15.3603 1.39473L15.461 1.59227L15.6943 1.55117L15.8017 1.7275L15.9197 1.87996L16.0709 1.97674L16.2087 2.09341L16.4063 2.13186L16.6171 2.16633L16.6887 2.36386L16.8517 2.45667L16.9432 2.62504L17.1301 2.69796L17.1606 2.91803L17.3078 3.03072L17.5411 3.07447L17.5451 3.40459L17.7453 3.19114L17.9694 3.27864L18.082 3.05061L18.2345 2.92996L18.4533 3.00686L18.5832 2.8133L18.7807 2.83053L18.9822 2.86633L19.1665 2.84644L19.2872 2.61046L19.4714 2.59057L19.6464 2.53489L19.8599 2.62636L20.0031 2.45534L20.1953 2.46727L20.3504 2.33602L20.5586 2.41955L20.7203 2.30553L20.9205 2.36519L21.0928 2.30686L21.2718 2.26973L21.4561 2.26178L21.6298 2.19814L21.8035 2.14114L21.9758 2.06689L22.176 2.15572L22.3351 1.99928L22.53 2.06424L22.701 1.97674L22.8627 1.81765L23.047 1.81102L23.234 1.82826L23.4315 1.94227L23.6065 1.86273L23.7921 1.88394L23.9698 1.82958L24.1501 1.79246L24.3396 1.87333L24.5133 1.75136L24.7002 1.8097L24.8806 1.78185L25.0662 1.82693L25.2398 1.66519L25.4228 1.65458L25.6071 1.67447L25.794 1.82693L25.9743 1.77257L26.1546 1.60553L26.3376 1.64397L26.5218 1.79113L26.7061 1.70098L26.8931 1.66651L27.076 1.75269L27.2643 1.63602L27.4446 1.78583L27.6328 1.71159L27.8184 1.70629L27.9974 1.82428L28.1897 1.71159L28.3686 1.8256L28.5675 1.64L28.7359 1.86538L28.9308 1.75932L29.1177 1.75534L29.2914 1.88261L29.4703 1.9436L29.6586 1.92504L29.8495 1.8972L30.0272 1.96083L30.2327 1.83488L30.3997 1.97409L30.576 2.04701L30.759 2.07485L30.9632 1.97807L31.1143 2.18489L31.2986 2.20345L31.4749 2.26443L31.6685 2.24057L31.8408 2.32011L32.0582 2.18754L32.2319 2.26178L32.383 2.43413L32.558 2.49909L32.7543 2.4739L32.9399 2.49246L33.1401 2.46197L33.3204 2.50572L33.5007 2.5508L33.6571 2.67674L33.8334 2.73773L33.9832 2.87959L34.2033 2.79474L34.3545 2.92996L34.499 3.08375L34.6859 3.10629L34.8834 3.09834L35.0969 3.04663L35.1963 3.32106L35.4243 3.29587L35.6206 3.19247L35.7359 3.05591L35.7637 2.83849L35.9785 2.79208L35.9493 2.50705L36.2052 2.51102L36.3537 2.40629L36.363 2.13451L36.6029 2.14114L36.7064 1.97674L36.8853 1.91443L36.9795 1.7275L37.1611 1.67049L37.2791 1.5114L37.4726 1.47825L37.6609 1.44511L37.8611 1.43981L37.9539 1.21178L38.1249 1.14416L38.3145 1.1256L38.4829 1.05799L38.6605 1.01424L38.8196 0.912154L38.9721 0.778252L39.1762 0.83526L39.3539 0.79151L39.5316 0.753063L39.6986 0.640373L39.8922 0.696055L40.0751 0.686774L40.2594 0.698706L40.4317 0.530334L40.6187 0.579388L40.803 0.551547L40.9859 0.742456L41.1689 0.758366L41.3624 0.637721L41.5494 0.652305L41.7363 0.664236L41.9153 0.730525L42.1075 0.715941L42.2984 0.721244L42.4694 0.815373L42.6405 0.900222L42.842 0.880336L43.0369 0.890942L43.1575 1.10837L43.3073 1.23299L43.5247 1.19322L43.6971 1.26481L43.8549 1.36822L44.0405 1.41727L44.2062 1.50477L44.3547 1.61746L44.4634 1.78848L44.641 1.85212L44.7657 1.99265L44.9234 2.08811L45.1554 2.09341L45.2456 2.27504L45.2933 2.49644L45.4962 2.54682L45.5677 2.73375L45.7679 2.79606L45.7905 3.02144L45.9231 3.14606L46.0172 3.3025L46.3301 3.29587L46.3248 3.52788L46.5249 3.61538L46.5594 3.81425L46.6496 3.97599L46.8259 4.08868L46.9293 4.24645L46.9717 4.43338L46.9731 4.63755L47.0937 4.78603L47.1772 4.95308L47.1096 5.17448L47.1905 5.33887L47.388 5.47145L47.2926 5.6902L47.4371 5.84266L47.4464 6.03092L47.3708 6.23244L47.4596 6.40214L47.4066 6.59305L47.4928 6.76672L47.5577 6.94437L47.4662 7.13263L47.5193 7.31293L47.624 7.49589L47.5537 7.68017L47.6479 7.86843L47.6465 8.05536L47.5312 8.23036L47.4304 8.40138L47.4742 8.59362L47.4517 8.77658L47.3946 8.9529L47.4132 9.14646L47.1984 9.27904L47.3058 9.50177L47.2117 9.66484L47.107 9.8226L47.0354 9.99097L47.0433 10.1938L46.875 10.3184L46.9174 10.5451L46.7623 10.6724L46.6589 10.8262L46.6496 11.0171L46.5289 11.1338L46.7106 11.1961L46.7424 11.4082L46.8696 11.5408L47.0115 11.6628L47.0765 11.8457L47.2753 11.9253L47.3814 12.0764L47.3721 12.3124L47.4212 12.5033L47.7115 12.5205L47.7884 12.6916L47.7526 12.9408L47.8547 13.0919L48.031 13.194L48.0429 13.4061L48.1888 13.5294L48.3744 13.6275L48.5441 13.7389L48.5746 13.9364L48.7138 14.0677L48.7787 14.244L48.735 14.4827L48.9697 14.5582L48.902 14.8088L49.0306 14.9467L49.264 15.0262L49.3157 15.2078L49.4257 15.3577L49.3634 15.5989L49.5914 15.6864L49.5424 15.9185L49.6166 16.0855L49.8566 16.1717L49.8314 16.3878L49.964 16.5283L50.0515 16.6914L50.0979 16.8717L50.1377 17.0546L50.2477 17.2071L50.3935 17.3437L50.4413 17.524L50.3431 17.7639L50.4068 17.9349L50.4969 18.0954L50.7117 18.208L50.7303 18.399L50.7767 18.5779L50.7475 18.7834L50.9305 18.912L51.0431 19.0671L50.9702 19.2872L51.1731 19.4118L51.0988 19.6293L51.2765 19.7658L51.2672 19.962L51.4276 20.1052L51.3003 20.3346L51.3282 20.5175L51.3494 20.7005L51.5668 20.8317L51.5164 21.0346L51.6039 21.2016L51.5814 21.3965L51.771 21.5397L51.7219 21.7399L51.8174 21.9069L51.9195 22.0726L51.8147 22.2821L51.9102 22.4505L51.9248 22.6348L51.9447 22.8177L52.0547 22.9848L52.0825 23.1664L52.1661 23.3401L52.178 23.5244L52.1091 23.7219L52.1329 23.9035L52.0481 24.0997L52.239 24.2602L52.1342 24.4577L52.1581 24.6393L52.1966 24.8196L52.1634 25.0066L52.3225 25.1763L52.3557 25.3579L52.4299 25.5369L52.2058 25.7371L52.3928 25.9094L52.2443 26.1016L52.3291 26.2806L52.2483 26.4675L52.4697 26.6425L52.3238 26.8308L52.3716 27.0138L52.361 27.198L52.3848 27.381L52.3 27.5653Z" stroke="#93572E" stroke-width="1.06061" stroke-linejoin="round"/>
</g>
<defs>
<clipPath id="clip0_1690_28931">
<rect width="53" height="49.0665" fill="white"/>
</clipPath>
</defs>
</svg>
