<svg width="249" height="60" viewBox="0 0 249 60" fill="none" xmlns="http://www.w3.org/2000/svg">
<mask id="path-1-inside-1_1395_9075" fill="white">
<path fill-rule="evenodd" clip-rule="evenodd" d="M8.77437 36.644L0.499943 31.866C-0.166649 31.4811 -0.166647 30.5189 0.499944 30.134L8.35694 25.5971C10.4868 11.1159 22.9633 0 38.0361 0H218.036C234.605 0 248.036 13.4315 248.036 30C248.036 46.5685 234.605 60 218.036 60H38.0361C23.7508 60 11.7975 50.0153 8.77437 36.644Z"/>
</mask>
<path fill-rule="evenodd" clip-rule="evenodd" d="M8.77437 36.644L0.499943 31.866C-0.166649 31.4811 -0.166647 30.5189 0.499944 30.134L8.35694 25.5971C10.4868 11.1159 22.9633 0 38.0361 0H218.036C234.605 0 248.036 13.4315 248.036 30C248.036 46.5685 234.605 60 218.036 60H38.0361C23.7508 60 11.7975 50.0153 8.77437 36.644Z" fill="white"/>
<path d="M8.77437 36.644L9.74976 36.4234L9.65328 35.9967L9.27443 35.778L8.77437 36.644ZM0.499943 31.866L0.999999 31H0.999999L0.499943 31.866ZM0.499944 30.134L1 31H1L0.499944 30.134ZM8.35694 25.5971L8.857 26.4631L9.27591 26.2212L9.3463 25.7426L8.35694 25.5971ZM9.27443 35.778L0.999999 31L-0.000112756 32.732L8.27432 37.5099L9.27443 35.778ZM0.999999 31L1 31L-0.00011153 29.268C-1.33329 30.0378 -1.3333 31.9622 -0.000112569 32.732L0.999999 31ZM1 31L8.857 26.4631L7.85688 24.7311L-0.000111764 29.268L1 31ZM9.3463 25.7426C11.405 11.745 23.4666 1 38.0361 1V-1C22.46 -1 9.56852 10.4867 7.36758 25.4516L9.3463 25.7426ZM38.0361 1H218.036V-1H38.0361V1ZM218.036 1C234.052 1 247.036 13.9837 247.036 30H249.036C249.036 12.8792 235.157 -1 218.036 -1V1ZM247.036 30C247.036 46.0163 234.052 59 218.036 59V61C235.157 61 249.036 47.1208 249.036 30H247.036ZM218.036 59H38.0361V61H218.036V59ZM38.0361 59C24.2282 59 12.6721 49.3489 9.74976 36.4234L7.79899 36.8645C10.9229 50.6817 23.2734 61 38.0361 61V59Z" fill="#4A4A4A" mask="url(#path-1-inside-1_1395_9075)"/>
</svg>
